<svg t="1739412563226" class="icon" viewBox="0 0 1024 1024" version="1.1" xmlns="http://www.w3.org/2000/svg" p-id="2660" width="256" height="256"><path d="M515.008 962.368a44.8 44.8 0 0 1-32.096-13.312l-211.904-211.904a45.44 45.44 0 0 1 64.192-64.192l179.84 179.776 391.68-391.68a45.408 45.408 0 0 1 64.224 64.192L547.136 949.056a44.8 44.8 0 0 1-32.128 13.312" fill="#689F38" p-id="2661"></path><path d="M514.848 962.368a44.8 44.8 0 0 0 32.096-13.312l211.904-211.904a45.44 45.44 0 0 0-64.192-64.192l-179.84 179.776-391.68-391.68a45.44 45.44 0 0 0-64.224 64.192l423.808 423.808a44.8 44.8 0 0 0 32.128 13.312" fill="#689F38" fill-opacity=".502" p-id="2662"></path><path d="M768 320h-192V64l-256 384h192v256z" fill="#FFCA28" p-id="2663"></path></svg>