<svg t="1739412672766" class="icon" viewBox="0 0 1649 1024" version="1.1" xmlns="http://www.w3.org/2000/svg" p-id="10523" width="256" height="256"><path d="M944.919257 150.624629h704.114834L1407.38599 856.708045 802.431433 359.238053l142.487824-208.613424z" fill="#FFA440" p-id="10524"></path><path d="M592.449376 850.521074h804.924969l-587.518547-487.458347Q701.190084 606.773152 592.449376 850.521074z" fill="#F07300" p-id="10525"></path><path d="M0 145.58131h200.195393l301.642975 523.286536q149.143506-259.140357 298.30576-518.299462h194.983339Q749.298473 587.293566 503.506976 1024z" fill="#FFBB49" p-id="10526"></path><path d="M263.527482 150.568384h476.621773L511.831264 583.862609Q387.660625 367.243619 263.527482 150.568384z" fill="#FFC571" p-id="10527"></path><path d="M253.272108 0s91.660918 13.911311 244.966568 100.585155c0 0 176.666154-100.585155 238.310886-100.585155 0 0 81.668022 20.623238 11.680252 173.91014l-58.326266 104.991028-184.952946-91.660918-183.359332 91.660918s-73.324984-97.24794-81.649273-139.450584-29.997437-123.364459 13.330111-139.450584z" fill="#F05C00" p-id="10528"></path><path d="M1163.713062 718.663591h-7.03065L956.786993 278.901168h106.865869l99.947709 231.711451 100.810136-231.711451h99.216522z" fill="#472F0C" p-id="10529"></path></svg>