<svg t="1739412749253" class="icon" viewBox="0 0 1024 1024" version="1.1" xmlns="http://www.w3.org/2000/svg" p-id="12636" width="256" height="256"><path d="M1012.214519 296.585481v1.066667c-1.865956 5.599763-5.388326 10.348089-8.321897 15.362845a6166.395259 6166.395259 0 0 1-22.344059 37.436681c-7.948326 13.333807-15.947852 26.614519-23.897126 40.000474-12.425481 20.906667-24.903111 41.707141-37.333333 62.614756-8.851911 14.933333-17.810963 29.814519-26.770015 44.747852-6.9888 11.626193-13.814519 23.359526-20.855467 34.93357-2.667141 3.46643-4.907615 7.144296-6.507141 11.199526-9.652148 15.836919-19.092859 31.836919-28.585718 47.785718-8.851911 14.881185-17.707615 29.758578-26.558578 44.640711-7.522607 12.691911-15.041422 25.33357-22.72237 37.973334-4.636444 7.678104-9.118341 15.4112-13.759526 23.093096-1.225956 2.077393-2.825481 3.040711-5.226193 2.93357-1.333096-0.055941-2.666193 0-3.999289 0H379.041185c-2.133333 0-4.266667 0.318578-6.3488-0.426666-2.077393-1.865956-0.640948-3.629511 0.322371-5.229037 2.6112-4.533096 5.333333-9.0112 8.051674-13.492148 12.53357-21.119052 25.174281-42.240948 37.759051-63.36 9.28237-15.625481 18.667141-31.250963 28.000712-46.881186 13.814519-23.200237 27.625244-46.344533 41.440711-69.54477 10.614519-17.865956 21.281185-35.681659 31.947852-53.492622 10.503585-17.599526 20.959763-35.2 31.46714-52.855467 7.892385-13.277867 15.836919-26.507378 23.785245-39.733096a7903.637807 7903.637807 0 0 0 27.358815-45.973808c1.814756-1.867852 3.092859-4.001185 3.892148-6.504296 1.656415-2.666193 2.93357-5.655704 5.600711-7.629748 1.974044-0.744296 4.05523-0.476919 6.081422-0.476918h384.907378c1.866904 0 3.732859 0.0512 5.599763 0.0512 1.333096 0.055941 2.507852 0.533807 3.307141 1.759762z m0 0" fill="#BB46FE" p-id="12637"></path><path d="M372.051437 699.148326c-3.2 3.837156-5.333333 8.370252-7.836444 12.58477-11.466904 19.040711-22.829511 38.185719-34.240474 57.281423-5.389274 9.067141-10.774756 18.133333-16.159289 27.200474-0.267378 0.477867-0.589748 0.903585-0.856178 1.384296-1.010726 2.082133-1.918104 1.549274-2.87763-0.107141-2.399763-4.158578-4.855467-8.210963-7.307378-12.373333-0.426667-0.692148-0.692148-1.437393-1.441185-1.919052-1.547378-0.26643-2.025244-1.599526-2.71834-2.718341-8.055467-13.495941-16.163081-26.933096-24.162608-40.481185-13.759526-23.200237-27.677393-46.348326-41.385718-69.548563-6.291911-10.610726-12.691911-21.170252-18.984771-31.78477-7.200237-12.051911-14.399526-24.051674-21.547615-36.159526-7.359526-12.373333-14.774993-24.640474-22.13357-37.014756-9.225481-15.574281-18.507852-31.092622-27.785481-46.666903-10.56237-17.707615-21.121896-35.359289-31.681423-53.066904-12.640711-21.174044-25.281422-42.399289-37.91834-63.573334-7.149037-12.051911-14.400474-24.052622-21.548563-36.103585-9.225481-15.574281-18.507852-31.096415-27.784534-46.667852-3.52237-5.973333-6.881659-11.998815-10.666666-17.813807-0.963319-1.441185-1.014519-3.2-1.867852-4.693333v-0.53286c0.801185-1.225956 1.919052-1.706667 3.411437-1.655466 0.907378 0.055941 1.759763 0 2.667141 0 41.6 0 83.2 0.055941 124.747851-0.052148 4.318815 0 7.040948 1.174756 9.174282 5.174044 5.599763 10.507378 11.570252 20.800474 17.436444 31.14477 7.149037 12.588563 14.189985 25.230222 21.282134 37.814993 7.251437 12.907141 14.506667 25.814281 21.814992 38.718578 6.66643 11.840474 13.277867 23.680948 20.000237 35.52237 6.4512 11.410963 12.903348 22.876919 19.303348 34.292622 7.25523 12.907141 14.455467 25.865481 21.762845 38.773571 6.236919 11.041185 12.47763 22.07763 18.667141 33.173807 6.07763 10.934044 12.369541 21.76 18.292622 32.800237 0.265481 0.477867 0.585007 0.903585 0.851437 1.333097 0.692148 1.170963 1.281896 0.959526 1.921896-0.107141 2.078341-3.41523 4.001185-6.932859 5.919289-10.400237 6.614281-11.947615 13.385007-23.840237 20.107378-35.73286 10.717867-19.040711 21.384533-38.081422 32.0512-57.122133 10.666667-18.985719 21.389274-37.867141 32.055941-56.800711 8.266904-14.665956 16.477867-29.436207 24.743822-44.103111 7.522607-13.281659 14.933333-26.666667 22.455941-39.948326 7.785244-13.759526 15.467141-27.574044 23.303585-41.28237 1.122607-1.917156 2.667141-3.03597 4.963555-3.035971 1.066667 0 2.133333-0.055941 3.2-0.05594 41.759289 0 83.518578 0 125.276919 0.05594 1.707615 0 3.840948-0.800237 4.907615 1.544534-0.851437 2.614993-2.559052 4.748326-3.999289 7.04a42.806993 42.806993 0 0 0-3.785956 6.4c-8.106667 13.652385-16.163081 27.307615-24.321896 40.96l-39.359526 66.081185c-13.548089 22.718578-27.148326 45.385007-40.692622 68.107378-16.958578 28.425481-33.865956 56.851911-50.825482 85.277392-14.722844 24.692622-29.440948 49.389037-44.162844 74.081659-10.401185 17.441185-20.800474 34.87763-31.200711 52.374756-0.369778 0.799289-0.692148 1.599526-1.066667 2.398815z m0 0" fill="#FEE194" p-id="12638"></path><path d="M448 224.052148c0 23.629748 0.052148 47.255704 0.052148 70.880711 0 0.908326-0.104296 1.759763-0.533807 2.56-6.559289 11.947615-13.169778 23.892385-19.73286 35.892148-3.893096 6.72237-7.678104 13.440948-11.144533 20.373808-4.589037 8.426193-8.96 17.015467-13.973807 25.226429-1.225956 0.695941-2.185481 0.163081-3.2-0.533807-18.133333-12.8-36.108326-25.703348-54.24166-38.503348a4104.756148 4104.756148 0 0 1-30.985481-22.081422c-1.973096-1.441185-3.465481-1.441185-5.388326-0.052148-10.718815 7.837393-21.651911 15.467141-32.425718 23.201185a14988.064237 14988.064237 0 0 1-35.574519 25.225481c-5.436681 3.84-10.770015 7.784296-16.210489 11.574045-1.173807 0.799289-2.240474 1.810963-3.840948 1.384296-2.451911-4.266667-4.907615-8.533333-7.414519-12.8-2.667141-4.532148-5.226193-9.066193-7.518814-13.814519-6.18477-11.251674-12.373333-22.452148-18.559052-33.651674-0.749037-0.533807-0.749037-1.441185-1.122608-2.133333-3.252148-5.973333-6.4512-11.999763-9.759288-17.974044-0.907378-1.600474-1.333096-3.2-1.333097-5.010963 0.055941-22.08237 0.055941-44.214993 0-66.296415 0-1.118815-0.107141-2.292622-0.159289-3.46643h3.733808c3.625719 0.695941 7.199289 1.496178 10.880948 1.441185 8.477393 1.865956 16.959526 3.787852 25.436918 5.654756 10.400237 2.23763 20.800474 4.585244 31.148563 6.877867 9.759289 2.133333 19.518578 4.425956 29.33286 6.615229 11.415704 2.506904 22.825719 5.174044 34.241422 7.625956 3.307141 0.692148 6.343111-0.585956 9.38477-1.281897 10.933096-2.399763 21.814993-4.744533 32.692148-7.252385 12.163793-2.825481 24.374044-5.440474 36.589037-8.158815 11.785481-2.614993 23.574756-5.174044 35.308089-7.789037 5.436681-1.225956 10.877156-2.503111 16.425719-3.092859 1.544533-0.158341 3.144059 0.374519 4.585244-0.532859 1.173807-0.107141 2.240474-0.107141 3.307141-0.107141z m0 0" fill="#BC30EF" p-id="12639"></path><path d="M180.851674 224.052148c1.866904 0.96237 3.948089 1.229748 5.974282 1.599526 0.959526 0.163081 1.921896 0.21523 2.56 1.066667-3.626667-0.585007-7.360474-0.692148-10.666667-2.666193h2.133333z m0 0" fill="#E1A3F8" p-id="12640"></path><path d="M440.533333 225.118815c0.692148-0.369778 1.441185-0.744296 2.133334-1.066667h2.133333c-1.118815 1.496178-2.718341 1.121659-4.266667 1.066667z m0 0" fill="#DE99F7" p-id="12641"></path><path d="M694.347852 602.081659h-37.866193c-28.696652-0.055941-50.881422-19.1488-55.200237-47.46714-0.481659-2.988563-0.429511-6.030222-0.429511-9.066193 0-9.067141 0.055941-18.133333-0.052148-27.200474-0.0512-3.095704 0.749037-5.707852 2.507852-8.214756 3.732859-5.385481 7.307378-10.933096 10.985244-16.374518 0.799289-1.173807 0.958578-2.133333 0.425719-3.410489-3.518578-8.747615-6.611437-17.655467-10.610726-26.1888-3.359289-7.092148-3.626667-14.133096-2.348563-21.54477 5.655704-33.655467 34.56-58.45523 68.640237-58.614519 20.959763-0.107141 41.974519-0.107141 62.933333 0 30.134044 0.159289 53.974281 23.893333 54.347852 54.025481 0.104296 10.133807 0 20.266667 0.053096 30.400475 0 2.189274-0.533807 4.159526-1.548326 6.13357-4.052385 7.999526-8.000474 16.054993-12.104059 24.054518-0.963319 1.867852-1.173807 3.467378-0.481659 5.544771 3.893096 11.415704 7.307378 23.040948 11.626193 34.292622 3.359289 8.748563 2.666193 17.122607-0.159289 25.496652-7.892385 23.570963-27.999763 37.970489-52.851674 38.07763-12.589511 0.055941-25.230222 0.055941-37.867141 0.05594z m0 0" fill="#FEFEFE" p-id="12642"></path><path d="M871.892385 532.159526c-1.333096 4.05523-3.625719 7.521659-6.4 10.721659 1.814756-3.732859 3.893096-7.36237 6.4-10.721659z m0 0" fill="#F0D9FE" p-id="12643"></path><path d="M603.733333 309.918341c0.585007-2.559052 1.866904-4.636444 3.785008-6.4a22.682548 22.682548 0 0 1-3.785008 6.4z m0 0" fill="#F0C1A9" p-id="12644"></path><path d="M220.747852 379.200474c15.03763-10.718815 30.025956-21.441422 45.067378-32.108089 14.399526-10.24 28.8-20.425956 43.143585-30.718104 1.815704-1.333096 3.040711-1.600474 5.066904-0.159288 28.8 20.584296 57.655941 41.066193 86.50714 61.544296 0.640948 0.481659 1.385244 0.800237 2.082134 1.173807-9.174281 16.800237-18.399763 33.651674-27.574045 50.451911-7.307378 13.3888-14.666904 26.773807-21.974281 40.163556-6.774519 12.266193-13.549037 24.533333-20.266667 36.851674-6.559289 11.892622-13.06643 23.840237-19.574519 35.732859-0.425719 0.749037-0.532859 1.919052-1.599525 1.919052s-1.173807-1.225956-1.544534-1.919052c-13.922607-25.38477-27.840474-50.718341-41.763081-76.107852-2.825481-5.118104-5.650963-10.24-8.477393-15.410251-0.533807-1.333096-1.441185-2.455704-2.133333-3.733808-0.426667-0.64-0.481659-1.547378-1.066667-2.133333a33471.31923 33471.31923 0 0 0-32.533807-59.199526c-1.173807-2.081185-2.240474-4.214519-3.359289-6.347852z m0 0" fill="#FEE194" p-id="12645"></path><path d="M416.585007 353.706667c-0.26643-1.758815 1.014519-2.932622 1.763556-4.32166a3714.304 3714.304 0 0 1 7.999526-14.610963c0.318578-0.5888 0.533807-1.333096 1.385244-1.441185-3.359289 6.985956-7.149037 13.759526-11.148326 20.374756z m0 0" fill="#CB5CE9" p-id="12646"></path><path d="M205.866667 352.585007c2.718341 4.481896 5.440474 8.962844 7.518814 13.814519-3.2-4.214519-5.867141-8.747615-7.518814-13.814519z m0 0" fill="#F0D0F3" p-id="12647"></path><path d="M257.651674 446.933333c1.173807 0.959526 2.029037 2.133333 2.133333 3.733808-1.010726-1.066667-1.918104-2.241422-2.133333-3.733808z m0 0" fill="#FEEFC8" p-id="12648"></path><path d="M186.185007 316.8c0.5888 0.585007 1.173807 1.225956 1.122608 2.133333-0.959526-0.426667-1.225956-1.173807-1.122608-2.133333z m0 0" fill="#F1D3F3" p-id="12649"></path><path d="M256.585007 444.8c0.856178 0.481659 1.122607 1.225956 1.066667 2.133333-0.692148-0.533807-1.010726-1.281896-1.066667-2.133333z m0 0" fill="#FEEFC8" p-id="12650"></path><path d="M769.014519 426.666667c-9.066193-7.681896-19.681659-11.307615-31.362845-11.466904-13.06643-0.214281-26.132859-0.640948-39.144296 0.21523-19.2 1.225956-34.93357 18.077393-35.359289 37.333333-0.055941 2.077393 0.426667 4.051437 1.225955 5.970489 4.107378 10.132859 8.051674 20.321659 12.267141 30.399526 1.225956 2.93357 1.333096 5.496415 0.210489 8.429037-1.651674 4.319763-2.825481 8.800711-4.477155 13.119526-1.493333 3.785007-1.922844 7.573807-0.749038 11.465955 0.533807 1.759763-0.0512 2.133333-1.706666 2.133334-4.693333-0.0512-9.436919 0-14.134045-0.0512-1.702874 0-3.359289-0.374519-4.799526-1.333097-3.036919-2.029985-3.411437-4.001185-1.437392-6.989748 3.944296-5.918341 7.837393-11.892622 11.837629-17.758815 1.921896-2.825481 2.133333-5.707852 0.85523-8.799763-4.748326-11.785481-9.547852-23.518815-14.133096-35.415229-1.492385-3.837156-0.5888-7.944533 0.107141-11.836682 4.585244-25.174281 25.118341-42.348089 50.71834-42.400237 12.53357 0 25.067141-0.695941 37.548563 0.26643 15.4112 1.225956 26.185007 9.545007 32.585008 23.570963 0.907378 2.347615 0.907378 2.347615-0.052148 3.147852z m0 0" fill="#BB46FE" p-id="12651"></path><path d="M618.292148 559.574281c1.281896 0.0512 2.026193 0.640948 2.825482 1.173808 9.4976 7.037156 20.164267 10.237156 31.8976 10.185007h47.143822c10.456178 0 18.399763-4.158578 23.040948-13.758577 2.292622-4.693333 2.774281-9.547852 1.014519-14.722845-4.429748-12.8512-8.640474-25.759289-12.963082-38.66643-0.585007-1.703822-0.532859-3.144059 0.32237-4.800474 3.893096-7.570015 7.466667-15.359052 11.519052-22.825718 2.133333-3.944296 2.825481-7.784296 1.655467-11.999763-0.533807-1.810963-0.107141-2.451911 1.758815-2.34477 2.241422 0.104296 4.425956 0 6.667378 0.052148 2.240474 0.052148 4.158578 0.800237 5.707851 2.507852 1.599526 1.758815 2.184533 3.46643 0.902637 5.973333-4.370963 8.426193-8.426193 17.011674-12.8 25.492859-1.599526 3.092859-1.703822 5.973333-0.637155 9.174282 4.370963 12.8512 8.426193 25.86643 13.011437 38.610488 2.988563 8.374044 1.655467 16.21523-2.240474 23.625956-6.611437 12.696652-17.493333 19.040711-31.785719 19.1488-16.107141 0.107141-32.159289 0.0512-48.214281 0-17.919052-0.052148-30.610963-8.319052-37.970489-24.641422-0.429511-0.585007-0.5888-1.333096-0.856178-2.184534z m0 0" fill="#BB46FE" p-id="12652"></path><path d="M744.158815 584.640474c4.800474-5.922133 8.215704-11.681185 10.081659-18.292622 2.56-9.121185 3.411437-18.133333 0-27.414756-4.321659-11.625244-7.948326-23.573807-11.947615-35.359289-0.533807-1.548326-0.426667-2.881422 0.322371-4.321659 3.785007-7.466667 7.199289-15.092622 11.302874-22.345007 4.481896-7.841185 2.563793-14.774044-2.184534-21.333334-4.374756-6.025481-10.615467-9.121185-18.081185-9.225481-13.226667-0.163081-26.504533-0.055941-39.734044 0-5.118104 0-6.610489 0.637156-15.03763 5.333333 0.319526-3.46643 1.226904-6.455941 2.878578-9.122133 4.425956-7.252385 10.825956-11.519052 19.41523-11.678341 12.640711-0.214281 25.225481-0.265481 37.866192 0 18.451911 0.426667 33.918104 17.334044 33.118815 35.678815-0.052148 1.014519-0.374519 1.921896-0.800237 2.773333-4.533096 9.067141-9.0112 18.133333-13.600237 27.148326-1.277156 2.559052-1.441185 5.010963-0.532859 7.677156 4.799526 14.241185 9.491911 28.48237 14.292385 42.723555 0.695941 2.076444 0.532859 4.051437 0.163081 6.025482-2.667141 15.143822-11.200474 25.6-25.5488 31.199763-0.31763 0.26643-0.748089 0.318578-1.974044 0.532859z m0 0M650.025719 403.892148c-2.6112 3.789748-5.492622 7.256178-7.944534 11.093333-7.573807 12.055704-10.666667 25.281422-10.081659 39.414519 0.052148 1.651674 0.693096 3.092859 1.281896 4.585244 4.103585 10.24 8.159763 20.480948 12.318341 30.666904 0.692148 1.763556 0.640948 3.040711-0.425719 4.640237-3.359289 4.800474-6.240711 9.974519-9.866429 14.559763-4.425956 5.547615-3.948089 11.254519-1.281896 17.014519 4.107378 8.851911 11.307615 13.651437 21.066903 13.866666 13.226667 0.26643 26.507378 0.052148 39.733097 0.052148 3.255941 0 6.3488-0.903585 9.225481-2.237629 1.281896-0.587852 1.922844-0.429511 2.348563 0.959526 0.959526 3.144059 2.133333 6.240711 3.040711 9.38477 0.640948 2.241422-1.333096 5.389274-3.892148 6.61523-1.496178 0.692148-3.096652 0.800237-4.696178 0.800237-16.693096 0-33.437393 0.0512-50.133333 0-18.82643-0.055941-34.400711-15.947852-34.292622-34.722134 0-1.437393 0.481659-2.56 1.225955-3.678814 4.214519-6.239763 8.321896-12.588563 12.588563-18.825482 1.918104-2.829274 2.133333-5.599763 0.800237-8.798815-4.748326-11.574993-9.28237-23.256178-14.025955-34.88237-0.800237-2.026193-0.640948-4.051437-0.374519-6.025481 2.718341-19.892148 13.067378-34.348563 30.933333-43.415704 0.800237-0.476919 1.600474-0.744296 2.451912-1.066667z m0 0" fill="#BB46FE" p-id="12653"></path><path d="M698.292148 461.814519c2.026193 0.159289 4.107378-0.107141 6.082371 0.533807 4.209778 1.277156 5.810252 4.692385 3.892148 8.585481-4.159526 8.374044-8.266904 16.748089-12.533571 25.014045-1.492385 2.87763-1.758815 5.651911-0.692148 8.692622 1.651674 4.693333 3.091911 9.440711 4.851674 14.134045 0.800237 2.133333 0.055941 3.359289-1.651674 4.373807-2.56 1.492385-6.4 1.225956-8.799763-0.640948-2.507852-1.921896-3.092859-4.322607-1.974044-7.841185 1.865956-5.650963 3.680711-11.306667 5.706903-16.907378 1.118815-3.144059 1.225956-6.132622 0.052149-9.332622-2.078341-5.651911-3.625719-11.574044-5.867141-17.118815-1.810963-4.533096 1.600474-8.589274 5.389274-9.122134 1.758815-0.318578 3.677867-0.26643 5.543822-0.369777z m0 0" fill="#BB46FE" p-id="12654"></path><path d="M769.014519 426.666667c1.011674-1.066667-0.265481-2.133333 0-3.2 0.852385 0.749037 1.011674 1.814756 1.334044 2.825481 0.103348 0.374519 0.318578 0.959526-0.32237 1.066667-0.477867 0.108089-0.744296-0.31763-1.011674-0.692148z m0 0" fill="#D895FE" p-id="12655"></path></svg>